<?xml version="1.0" standalone="no"?><!DOCTYPE svg PUBLIC "-//W3C//DTD SVG 1.1//EN" "http://www.w3.org/Graphics/SVG/1.1/DTD/svg11.dtd"><svg t="1507894484548" class="icon" style="" viewBox="0 0 1024 1024" version="1.1" xmlns="http://www.w3.org/2000/svg" p-id="3322" xmlns:xlink="http://www.w3.org/1999/xlink" width="200" height="200"><defs><style type="text/css"></style></defs><path d="M512 0C229.2736 0 0 229.1712 0 512c0 282.7264 229.2736 512 512 512 282.8288 0 512-229.1712 512-512C1024 229.1712 794.8288 0 512 0zM792.8832 618.2912l0 4.096 0 3.7888-0.7168 4.608-1.024 7.8848-1.3312 7.168-2.1504 6.4512-0.8192 2.6624-1.4336 3.1744-1.2288 2.2528-1.6384 2.7648-1.4336 1.7408-1.8432 2.2528-1.6384 1.7408-1.7408 1.536-2.1504 0.9216-1.8432 0.9216-1.536 0.512-1.3312 0-1.024 0-1.536-0.512-2.8672-1.4336-1.3312-0.9216-1.3312-1.024-1.536-1.3312-1.536-1.536-2.56-2.7648-2.9696-3.9936-2.3552-4.096-2.3552-3.2768-2.3552-3.7888-3.2768-6.8608-3.6864-7.0656-0.4096-0.2048-0.6144 0-1.536 1.1264-0.8192 1.8432-1.4336 2.3552-2.4576 6.8608-3.7888 9.8304-4.8128 11.776-3.584 5.8368-3.7888 6.144-4.5056 6.8608-4.8128 6.7584-2.4576 3.072-2.9696 3.2768-6.8608 6.7584 0.6144 0.6144 0.9216 0.9216 3.3792 2.048 14.2336 6.8608 6.2464 3.4816 5.9392 3.3792 5.8368 4.3008 5.2224 4.4032 2.56 1.9456 1.8432 2.2528 1.9456 2.6624 1.6384 2.8672 0.8192 2.3552 1.024 2.8672 0.4096 2.4576 0.512 2.8672-0.512 1.9456 0 1.9456-0.4096 2.048-1.024 1.8432-0.4096 1.4336-0.9216 1.7408-2.56 3.4816-2.3552 2.7648-1.8432 2.1504-1.536 1.536-3.8912 2.8672-4.4032 2.4576-4.7104 2.3552-5.0176 2.2528-5.7344 2.2528-2.9696 0.9216-2.7648 0.7168-6.5536 1.536-6.7584 1.4336-6.8608 1.4336-7.3728 1.2288-7.68 0.3072-7.8848 0.9216-7.7824 0-8.192 0-8.3968 0-8.8064-0.512-8.192-0.7168-8.8064-1.2288-8.704-0.9216-9.216-1.3312-8.9088-2.2528-8.704-1.7408-8.704-2.4576-8.9088-3.1744-8.704-2.6624-4.608-1.536-4.096-1.4336-2.56-1.024-2.56-0.512-3.2768 0-3.8912 0-8.3968-0.6144-4.1984-0.4096-5.4272-0.6144-3.4816 3.1744-4.8128 2.9696-6.4512 3.1744-7.168 3.8912-4.3008 2.1504-4.5056 1.7408-10.0352 4.096-5.4272 1.3312-5.7344 1.536-7.8848 1.536-4.9152 0.4096-5.2224 0.4096-5.4272 0.6144-6.3488 0.3072-6.144 0L416.768 798.5152l-13.5168 0-14.7456-0.3072-14.2336-1.4336-7.2704-1.024-6.9632-1.024-6.7584-1.024-6.7584-1.3312-6.3488-2.048-6.3488-1.4336-5.7344-2.2528-5.4272-2.1504-5.0176-2.3552-4.3008-2.6624-4.3008-3.1744-1.4336-1.536-1.9456-1.8432-1.4336-1.6384-1.3312-1.8432-1.2288-1.8432-0.9216-1.8432-1.3312-3.9936-0.512-2.048-0.6144-2.3552 0-2.1504 0.6144-2.3552L298.9056 750.592l0.512-2.3552 0-1.4336L299.4176 743.424l0.2048-2.56 1.1264-2.8672 0.9216-2.8672 1.7408-3.4816 1.2288-1.3312 1.024-1.536 2.6624-3.2768 2.1504-1.7408 2.048-1.2288 1.8432-1.536 2.9696-0.9216 2.3552-1.4336 2.9696-1.536 3.3792-1.024 3.3792-1.024 3.8912-0.8192 3.7888-0.512 4.4032-0.6144 4.8128-0.3072 1.2288-0.4096 0.3072 0 0.6144-0.512 0-0.6144-0.8192-1.2288-2.56-1.2288-6.3488-5.5296-4.3008-3.3792-4.9152-4.3008-5.0176-4.8128-5.2224-6.2464-5.9392-6.9632-2.2528-3.7888-2.9696-3.8912-2.56-4.5056-2.2528-4.9152-3.072-4.7104-2.048-5.3248-2.3552-5.3248-2.3552-5.9392-1.7408-5.7344-1.6384-7.0656-0.512-0.3072-0.512 0-0.3072-0.512-0.6144 0-1.024 0.512-0.512 0.3072-0.7168 1.2288-0.3072 1.4336-0.512 1.3312-0.9216 2.1504-2.9696 5.2224-1.536 3.1744-2.3552 2.7648-2.56 3.2768-2.7648 3.6864-2.9696 3.2768-3.4816 3.1744-3.2768 2.9696-3.584 2.3552-3.8912 2.4576-3.7888 1.4336-4.4032 1.1264-4.3008 0.4096-0.4096 0-0.6144 0-1.024-0.4096-0.8192-1.7408-1.3312-0.8192-1.6384-4.096-1.024-2.2528-1.1264-3.1744-0.9216-3.2768-0.512-3.2768-1.3312-7.3728-0.512-4.3008 0-4.4032 0-9.8304 0.512-10.6496 0.8192-5.4272 1.024-5.632 0.9216-6.0416 1.6384-5.632 1.8432-6.4512 1.9456-6.2464 2.56-6.4512 2.3552-6.2464 3.2768-6.3488 3.072-6.7584 3.7888-6.3488 4.4032-6.8608 4.5056-6.2464 4.7104-6.8608 3.8912-4.8128 5.0176-5.5296 5.3248-5.5296 2.4576-2.6624 2.9696-2.9696 4.3008-3.7888 4.4032-3.7888 7.2704-6.4512 5.4272-3.9936 1.9456-1.4336-1.1264-3.2768-0.8192-4.3008-0.6144-2.3552L308.8384 470.016l0-3.584 0-3.2768 1.024-3.7888 1.1264-4.096 1.3312-4.3008 1.8432-4.7104 2.4576-4.9152 3.4816-4.9152 0-3.4816 0.3072-3.2768 0.512-4.4032 1.536-4.9152 1.3312-5.3248 1.1264-2.4576 1.2288-2.2528 1.6384-2.56 1.7408-1.8432 0-3.4816L329.5232 398.336l0-4.8128 1.024-6.3488 1.024-7.3728 1.8432-8.8064 2.56-9.1136 1.9456-5.0176 1.8432-5.4272 2.048-5.12 2.4576-5.4272 2.4576-5.9392 2.8672-5.632 3.2768-5.9392 4.096-5.9392 1.8432-3.3792 2.048-2.7648 4.4032-6.3488 4.5056-6.3488 5.12-6.4512 5.4272-6.3488 5.9392-6.2464 6.2464-6.3488 7.4752-6.8608 4.8128-4.1984 5.8368-4.5056 5.8368-3.9936 6.3488-3.7888 6.144-3.3792 6.8608-2.7648 7.3728-3.4816 7.2704-2.3552 7.2704-2.4576 7.8848-2.4576 7.8848-1.8432 8.2944-1.536 8.3968-1.3312 8.192-1.1264 8.2944-1.1264 8.8064-0.512 8.3968 0 8.704 0 9.0112 0 8.704 1.1264 8.704 1.024 8.9088 0.9216 8.192 1.9456 8.704 1.8432 8.192 2.1504 8.9088 2.3552 8.192 2.8672 7.8848 3.2768 8.3968 3.4816 7.68 3.7888 7.3728 4.1984 7.2704 4.7104 6.2464 4.3008 2.8672 2.4576 3.072 1.7408 5.8368 4.9152 4.9152 4.8128 4.8128 4.9152 4.8128 5.4272 3.8912 5.3248 4.608 5.4272 3.2768 5.8368 3.2768 5.2224 3.4816 6.0416 2.8672 5.3248 4.9152 11.1616 2.4576 5.7344 1.8432 5.3248 1.8432 5.8368 1.6384 5.4272 1.2288 4.7104 1.536 5.5296 2.6624 9.8304 1.7408 8.6016 1.1264 8.3968 0.9216 6.7584 1.536 10.24 0.3072 1.6384 1.2288 1.8432 3.2768 5.3248 2.048 3.584 1.8432 3.7888 2.3552 3.9936 2.048 4.8128 1.3312 4.9152 1.4336 5.3248 1.1264 5.5296 0.512 2.7648 0.4096 3.3792 0 2.8672-0.4096 2.8672 0 3.584-0.8192 3.4816-1.536 6.7584-1.7408 3.3792-1.3312 3.7888 0 0.9216 0.6144 1.2288 1.7408 2.7648 7.68 11.3664 6.0416 8.4992 2.8672 5.7344 3.8912 6.2464 3.3792 6.8608 3.8912 7.2704 3.8912 8.192 4.4032 9.3184 2.4576 5.7344 2.2528 5.5296 1.9456 5.8368 1.9456 5.3248 1.4336 5.5296 1.536 5.2224 1.9456 10.1376 1.536 10.3424 1.024 9.216L792.6784 618.2912z" p-id="3323" fill="#8a8a8a"></path></svg>