<?xml version="1.0" standalone="no"?><!DOCTYPE svg PUBLIC "-//W3C//DTD SVG 1.1//EN" "http://www.w3.org/Graphics/SVG/1.1/DTD/svg11.dtd"><svg t="1508402160218" class="icon" style="" viewBox="0 0 1024 1024" version="1.1" xmlns="http://www.w3.org/2000/svg" p-id="3467" xmlns:xlink="http://www.w3.org/1999/xlink" width="200" height="200"><defs><style type="text/css"></style></defs><path d="M959.882 512.628c0-247.521-200.656-448.177-448.177-448.177S63.527 265.106 63.527 512.628s200.656 448.177 448.177 448.177 448.178-200.656 448.178-448.177z m-39.279 0c0 225.828-183.07 408.898-408.898 408.898-225.828 0-408.898-183.07-408.898-408.898S285.877 103.73 511.705 103.73c225.827-0.001 408.898 183.069 408.898 408.898z" fill="#bfbfbf" p-id="3468"></path><path d="M756.311 599.774l-87.05-68.616-138.706-109.333c-6.407-5.05-18.455-15.319-18.455-15.319s-46.372 35.946-75.624 58.784L296.5 574.579l-32.269 25.195c-7.404 5.781-18.331 7.761-25.456 0-5.931-6.461-7.926-19.267 0-25.456l87.755-68.516 139.976-109.289 32.269-25.195c8.392-6.552 16.993-6.671 25.456 0l87.05 68.616 138.706 109.333 31.781 25.051c7.43 5.857 6.588 19.409 0 25.456-7.884 7.237-17.53 6.249-25.457 0z" fill="#bfbfbf" p-id="3469"></path></svg>