<?xml version="1.0" standalone="no"?><!DOCTYPE svg PUBLIC "-//W3C//DTD SVG 1.1//EN" "http://www.w3.org/Graphics/SVG/1.1/DTD/svg11.dtd"><svg t="1506422963650" class="icon" style="" viewBox="0 0 1024 1024" version="1.1" xmlns="http://www.w3.org/2000/svg" p-id="2665" xmlns:xlink="http://www.w3.org/1999/xlink" width="200" height="200"><defs><style type="text/css"></style></defs><path d="M512 1024C230.4 1024 0 793.6 0 512S230.4 0 512 0s512 230.4 512 512-230.4 512-512 512z m0-992C249.6 32 32 249.6 32 512s217.6 480 480 480 480-217.6 480-480S774.4 32 512 32z" p-id="2666"></path><path d="M262.4 384a70.4 70.4 0 1 0 140.8 0 70.4 70.4 0 1 0-140.8 0zM620.8 384a70.4 70.4 0 1 0 140.8 0 70.4 70.4 0 1 0-140.8 0zM512 819.2c128 0 236.8-76.8 281.6-192H230.4c44.8 115.2 153.6 192 281.6 192z" p-id="2667"></path></svg>