<?xml version="1.0" standalone="no"?><!DOCTYPE svg PUBLIC "-//W3C//DTD SVG 1.1//EN" "http://www.w3.org/Graphics/SVG/1.1/DTD/svg11.dtd"><svg t="1500962272212" class="icon" style="" viewBox="0 0 1024 1024" version="1.1" xmlns="http://www.w3.org/2000/svg" p-id="6627" xmlns:xlink="http://www.w3.org/1999/xlink" width="200" height="200"><defs><style type="text/css"></style></defs><path d="M512 0C230.4 0 0 230.4 0 512s230.4 512 512 512 512-230.4 512-512S793.6 0 512 0zM230.4 865.28c20.48-10.24 46.08-25.6 71.68-35.84 71.68-30.72 148.48-71.68 148.48-138.24V614.4l-10.24-10.24s-40.96-30.72-40.96-71.68v-10.24l-15.36-10.24c-5.12-5.12-25.6-25.6-25.6-40.96 0-10.24 5.12-20.48 5.12-20.48l15.36-15.36v-15.36c-5.12 0-20.48-66.56-20.48-107.52 0-87.04 56.32-138.24 153.6-138.24 30.72 0 61.44 10.24 66.56 20.48l5.12 10.24h15.36c35.84 0 66.56 51.2 66.56 102.4 0 61.44-15.36 112.64-15.36 112.64l-5.12 15.36 10.24 10.24c5.12 5.12 10.24 15.36 10.24 20.48 0 25.6-15.36 35.84-20.48 35.84l-20.48 10.24v20.48c0 51.2-35.84 71.68-35.84 71.68l-10.24 10.24v76.8c0 66.56 71.68 92.16 138.24 117.76 35.84 10.24 71.68 25.6 92.16 46.08-81.92 66.56-184.32 112.64-296.96 112.64-107.52 0-204.8-35.84-281.6-102.4z m614.4-46.08c-25.6-25.6-71.68-46.08-112.64-61.44-51.2-15.36-102.4-35.84-102.4-66.56v-46.08c15.36-10.24 46.08-46.08 51.2-92.16 15.36-10.24 35.84-35.84 35.84-76.8 0-15.36-10.24-30.72-10.24-40.96 10.24-20.48 15.36-66.56 15.36-112.64 0-81.92-46.08-153.6-102.4-158.72-25.6-30.72-71.68-35.84-107.52-35.84-128 0-209.92 71.68-209.92 194.56 0 35.84 10.24 81.92 10.24 107.52-5.12 5.12-15.36 20.48-15.36 40.96 0 35.84 25.6 66.56 40.96 76.8 5.12 51.2 35.84 81.92 51.2 97.28v46.08c0 30.72-61.44 61.44-112.64 87.04-35.84 15.36-66.56 30.72-92.16 51.2C102.4 747.52 56.32 634.88 56.32 512c0-250.88 204.8-455.68 455.68-455.68s455.68 204.8 455.68 455.68c0 117.76-46.08 225.28-122.88 307.2z" fill="#666666" p-id="6628"></path></svg>