<?xml version="1.0" standalone="no"?><!DOCTYPE svg PUBLIC "-//W3C//DTD SVG 1.1//EN" "http://www.w3.org/Graphics/SVG/1.1/DTD/svg11.dtd"><svg t="1505625127909" class="icon" style="" viewBox="0 0 1029 1024" version="1.1" xmlns="http://www.w3.org/2000/svg" p-id="37749" xmlns:xlink="http://www.w3.org/1999/xlink" width="200.9765625" height="200"><defs><style type="text/css"></style></defs><path d="M948.924416 738.983936 512.67584 929.682432 79.95392 736.520192l-3.357696 6.285312 2.106368-6.69184c-3.401728-1.071104-39.611392-15.366144-65.350656-29.983744L0 698.543104l0 15.356928c0 34.97984 11.650048 59.60704 34.214912 71.478272l428.525568 191.678464c18.132992 8.507392 33.61792 14.173184 50.243584 14.173184 16.503808 0 32.878592-5.62176 52.484096-14.1056l428.8-191.797248c31.604736-14.685184 34.060288-58.382336 34.060288-71.426048l0-14.432256-41.32864 20.599808C969.780224 728.667136 951.991296 737.547264 948.924416 738.983936z" p-id="37750" fill="#2c2c2c"></path><path d="M31.133696 384.479232l432.142336 192.146432c18.272256 8.51968 33.867776 14.195712 50.610176 14.195712 16.625664 0 33.123328-5.629952 52.87936-14.129152L999.161856 384.43008c17.3824-8.015872 28.659712-28.060672 29.433856-52.312064 0.837632-26.027008-10.248192-48.475136-29.038592-58.643456L567.656448 47.900672c-18.62144-10.913792-34.159616-15.778816-50.388992-15.778816-15.822848 0-32.535552 4.77184-54.351872 15.566848L30.626816 273.473536l-0.66048 0.380928c-19.014656 12.101632-30.18752 34.948096-29.160448 59.62752C1.739776 355.944448 12.880896 374.915072 31.133696 384.479232zM63.386624 326.731776 516.749312 86.566912l449.481728 240.161792-449.486848 201.25696L63.386624 326.731776z" p-id="37751" fill="#2c2c2c"></path><path d="M949.110784 536.679424 514.16576 729.51296 79.93344 536.9856l-2.499584 4.702208 1.91488-4.909056c-2.921472-1.140736-39.503872-17.78688-65.993728-32.838656l-13.355008-7.58784 0 15.36c0 35.335168 11.967488 61.093888 34.214912 72.781824l428.525568 191.689728c18.132992 8.507392 33.61792 14.173184 50.243584 14.173184 16.503808 0 32.878592-5.62176 52.484096-14.1056l428.793856-191.806464c25.115648-11.65312 34.066432-45.2096 34.066432-72.732672l0-14.440448-34.374656 17.137664C974.732288 523.999232 953.073664 534.806528 949.110784 536.679424z" p-id="37752" fill="#2c2c2c"></path></svg>