<?xml version="1.0" standalone="no"?><!DOCTYPE svg PUBLIC "-//W3C//DTD SVG 1.1//EN" "http://www.w3.org/Graphics/SVG/1.1/DTD/svg11.dtd"><svg t="1506258102596" class="icon" style="" viewBox="0 0 1024 1024" version="1.1" xmlns="http://www.w3.org/2000/svg" p-id="5124" xmlns:xlink="http://www.w3.org/1999/xlink" width="200" height="200"><defs><style type="text/css"></style></defs><path d="M669.952 157.504c125.376 0 227.392 101.888 227.392 227.136l0 53.248c0 132.736-104.128 244.864-227.392 244.864L585.024 682.752 564.736 682.752 548.16 694.4 351.36 832.96l0-111.168 0-49.984-48.512-12.096C195.84 633.024 126.656 545.92 126.656 437.888L126.656 384.64c0-125.248 102.016-227.136 227.392-227.136L669.952 157.504M669.952 93.504 354.048 93.504c-160.64 0-291.392 130.624-291.392 291.136l0 53.248c0 138.752 89.344 250.176 224.64 283.904l0 180.288c0 10.048 5.248 19.328 13.76 24.448 4.352 2.624 9.344 3.968 14.272 3.968 4.608 0 9.28-1.152 13.504-3.456l256.064-180.288 84.928 0c157.952 0 291.392-141.44 291.392-308.864L961.216 384.64C961.344 224.128 830.656 93.504 669.952 93.504L669.952 93.504z" p-id="5125" fill="#707070"></path></svg>