<?xml version="1.0" standalone="no"?><!DOCTYPE svg PUBLIC "-//W3C//DTD SVG 1.1//EN" "http://www.w3.org/Graphics/SVG/1.1/DTD/svg11.dtd"><svg t="1500966940269" class="icon" style="" viewBox="0 0 1045 1024" version="1.1" xmlns="http://www.w3.org/2000/svg" p-id="3716" xmlns:xlink="http://www.w3.org/1999/xlink" width="204.1015625" height="200"><defs><style type="text/css"></style></defs><path d="M1044.464848 807.65159C986.784224 826.018476 930.270727 838.263067 874.90388 844.364887 902.587303 867.543611 941.614378 908.843511 992.026056 968.264587L910.306719 1024C883.974706 989.477624 852.830855 942.485423 816.916118 883.043871 783.25373 944.676345 753.686523 991.64807 728.234974 1024L647.744192 968.264587C700.469647 905.792601 738.206739 864.492701 760.975946 844.364887 702.312478 833.45123 646.597541 821.206639 593.85161 807.65159L625.241173 714.19956C697.521117 738.770646 750.041812 760.065587 782.80326 778.043431 774.162428 698.637872 769.596302 644.028634 769.145832 614.195241L868.085404 614.195241C866.713518 657.624635 861.492162 712.008638 852.400861 777.388202 899.167827 754.578044 952.732794 733.528814 1013.136713 714.19956L1044.464848 807.65159ZM643.85377 418.773205C595.448731 466.74825 532.116757 491.339812 470.115718 491.339812 405.657569 491.339812 341.178945 465.355889 291.422496 413.572326L291.238213 412.384723C210.686004 328.023995 203.232774 194.480144 272.687043 101.130494 322.197781 33.826195 395.562948 0.040952 469.931435 0L470.095242 0C539.078565 0.040952 614.040853 32.433833 664.882524 95.929614 740.663848 191.90018 732.043492 330.624435 646.331355 416.172765L643.85377 418.773205ZM616.477485 137.311418C580.317037 90.74921 523.824016 64.765287 469.931435 64.765287L469.931435 64.560528C410.510359 64.621956 357.027295 91.99824 321.092082 141.119936 271.335634 209.878024 276.311279 305.828114 334.667607 366.805359L335.814258 368.013437C370.643772 405.586723 419.048811 426.369766 469.931435 426.369766 518.336474 426.369766 564.263928 406.979084 600.219617 372.006239L602.717677 369.405799C664.882524 308.428554 671.00482 206.089982 616.477485 137.311418ZM469.931435-0.020476C469.95191-0.020476 469.992862-0.020476 470.013338-0.020476 469.992862-0.020476 469.95191 0 469.931435 0L469.931435-0.020476ZM470.095242-0.020476 470.095242 0C470.074766 0 470.05429-0.020476 470.013338-0.020476 470.05429-0.020476 470.074766-0.020476 470.095242-0.020476ZM567.437693 532.168766C594.383984 532.168766 620.65457 535.342531 646.147071 540.768646 622.087883 555.757009 600.219617 573.837233 580.869887 594.333613 576.262808 594.14933 571.717157 593.719336 567.069127 593.719336L373.838013 593.719336C217.320197 593.719336 86.25393 707.974885 62.133314 863.837473 59.307639 888.060468 64.958989 913.819156 81.913038 932.308898 97.556629 952.334333 119.957269 962.244671 145.388343 962.244671L524.417817 962.244671C535.167667 984.297221 548.415578 1004.855029 563.608699 1023.795241L151.428735 1023.795241C58.713838 1023.795241-13.115636 941.441152 2.016058 849.340532 32.50468 666.818316 190.00534 532.168766 376.684164 532.168766L567.437693 532.168766Z" p-id="3717"></path></svg>