<?xml version="1.0" standalone="no"?><!DOCTYPE svg PUBLIC "-//W3C//DTD SVG 1.1//EN" "http://www.w3.org/Graphics/SVG/1.1/DTD/svg11.dtd"><svg t="1500777117202" class="icon" style="" viewBox="0 0 1024 1024" version="1.1" xmlns="http://www.w3.org/2000/svg" p-id="1018" xmlns:xlink="http://www.w3.org/1999/xlink" width="200" height="200"><defs><style type="text/css"></style></defs><path d="M683.011072 489.596928c-123.365376 0-187.907072 47.460352-187.907072 94.337024l0 251.88864c0 46.875648 64.564224 94.201856 187.9296 94.201856 122.441728 0 186.921984-46.313472 187.877376-93.417472l0.002048 0L870.913024 583.93088C870.912 537.054208 806.378496 489.596928 683.011072 489.596928zM821.76 835.810304c0 13.35296-47.044608 44.6464-138.236928 44.6464-91.198464 0-138.243072-31.29344-138.243072-44.6464l0-60.131328c30.72 17.123328 77.825024 28.524544 138.243072 28.524544 60.417024 0 106.492928-11.401216 138.236928-28.524544L821.76 835.810304zM821.76 709.878784c0 13.345792-47.044608 44.637184-138.236928 44.637184-91.198464 0-138.243072-31.291392-138.243072-44.6464L545.28 649.73824c30.72 17.124352 77.825024 28.52864 138.243072 28.52864 60.417024 0 106.492928-11.396096 138.236928-28.519424L821.76 709.878784zM683.047936 628.584448c-91.198464 0-138.223616-31.291392-138.223616-44.649472 0-13.353984 47.034368-44.6464 138.223616-44.6464 91.193344 0 138.218496 31.292416 138.218496 44.6464C821.265408 597.292032 774.240256 628.584448 683.047936 628.584448z" p-id="1019"></path><path d="M449.472512 608.256l-6.289408 0c-0.099328 0 0.050176 0.09216-0.052224 0.089088C311.652352 604.5696 231.936 558.779392 231.936 525.449216L231.936 407.553024c53.248 35.98336 142.90944 54.885376 228.861952 54.885376 85.947392 0 174.594048-18.902016 228.866048-54.889472l0 30.774272 0 0 0 14.80704c0 13.651968 10.96704 25.07776 24.619008 25.07776l-0.101376 0c13.651968 0 24.77056-11.323392 24.77056-24.97536L738.944 438.272 738.816 438.272l0-1.559552 0-0.328704 0 0L738.816 329.460736c0-86.378496-143.471616-132.985856-278.530048-132.985856-135.058432 0-278.525952 46.608384-278.525952 132.985856l0 391.980032c0 82.692096 131.5584 128.862208 261.287936 132.65408 0.03072 0.001024 0.0512-0.078848 0.080896-0.078848l6.342656 0c13.59872 0 25.151488-10.986496 25.151488-24.585216l0-0.22528c0-13.59872-11.552768-24.341504-25.151488-24.341504L442.88 804.864l0.246784-0.190464c-131.475456-3.776512-211.18976-49.907712-211.18976-83.232768L231.937024 603.544576c48.128 32.718848 126.783488 51.408896 205.187072 54.51776l0.018432 0.370688 5.89824 0 6.432768 0c13.59872 0 25.151488-11.327488 25.151488-24.926208l0-0.22528C474.624 619.681792 463.071232 608.256 449.472512 608.256zM460.343296 246.166528c141.831168 0 228.913152 48.514048 228.913152 83.294208 0 34.777088-87.081984 83.286016-228.913152 83.286016-141.827072 0-228.909056-48.508928-228.909056-83.286016C231.435264 294.680576 318.517248 246.166528 460.343296 246.166528z" p-id="1020"></path></svg>